<?xml version="1.0" encoding="UTF-8" standalone="no"?>
<svg
   viewBox="0 0 327.17 91.86"
   version="1.1"
   id="svg10"
   sodipodi:docname="Meltano-Melty-logo-white.svg"
   inkscape:version="1.1.1 (c3084ef, 2021-09-22)"
   xmlns:inkscape="http://www.inkscape.org/namespaces/inkscape"
   xmlns:sodipodi="http://sodipodi.sourceforge.net/DTD/sodipodi-0.dtd"
   xmlns="http://www.w3.org/2000/svg"
   xmlns:svg="http://www.w3.org/2000/svg">
  <defs
     id="defs14" />
  <sodipodi:namedview
     id="namedview12"
     pagecolor="#ffffff"
     bordercolor="#666666"
     borderopacity="1.0"
     inkscape:pageshadow="2"
     inkscape:pageopacity="0.0"
     inkscape:pagecheckerboard="0"
     showgrid="false"
     inkscape:zoom="3.226742"
     inkscape:cx="111.56764"
     inkscape:cy="21.848663"
     inkscape:window-width="2033"
     inkscape:window-height="969"
     inkscape:window-x="158"
     inkscape:window-y="226"
     inkscape:window-maximized="0"
     inkscape:current-layer="svg10">
    <inkscape:grid
       type="xygrid"
       id="grid2266" />
  </sodipodi:namedview>
  <g
     id="Layer_2"
     data-name="Layer 2">
    <g
       id="Layer_2-2"
       data-name="Layer 2">
      <path
         d="M145.56,77.71H138.7V59.8c0-5.08-2.69-7.26-6.06-7.26-3.19,0-6.25,1.15-8,4.05.06.67.12,1.34.12,2V77.71h-6.86V59.08c0-4.6-2.69-6.54-6.06-6.54A9.19,9.19,0,0,0,103.55,57V77.71H96.69V47.46h6.86v3.2l.37.19a12.44,12.44,0,0,1,9.61-4A10.78,10.78,0,0,1,123,51.69a14.59,14.59,0,0,1,11.39-4.84c6.25,0,11.21,4.36,11.21,12.95ZM180.4,60.53v3.63H157.86c.49,5.63,3.74,8.35,10.35,8.47a21.78,21.78,0,0,0,9-1.81L178.5,76a23.3,23.3,0,0,1-10.29,2.36c-10.28,0-17.26-5.93-17.26-15.67,0-8.29,5.81-15.68,15.18-15.8C174.46,46.85,179.85,51.63,180.4,60.53ZM158.17,59.2h15.31c-.31-4.48-3.31-6.66-7.16-6.66C161.91,52.54,159.09,55.26,158.17,59.2ZM197,78.26c-7.11,0-10.9-3.33-10.9-9.68v-35h6.85V68.09c0,2.79,1.84,4.06,4.66,4.24Zm1-30.8h4.71V37.77h6.86v9.69h8.33V52.9h-8.33V67c0,3.57,2,5.09,4.78,5.09a11.75,11.75,0,0,0,4.34-.67l1.23,5.33A15,15,0,0,1,213.59,78c-6.18,0-10.9-3.88-10.9-10.77V52.9H198Zm47.34,2.24.31-.13V47.46h6.86V77.71h-6.86V74.63l-.37-.12a12.47,12.47,0,0,1-9.49,3.81c-8.2,0-14.76-7-14.76-15.73a15.45,15.45,0,0,1,15.37-15.74C240.49,46.85,243.3,48,245.32,49.7ZM245.63,68v-13a13.94,13.94,0,0,0-8.39-2.54c-5.14,0-9.37,4.36-9.37,10.05s4.23,10,9.37,10C240.67,72.63,243.85,71.36,245.63,68Zm14.61-20.57h6.86v3.69l.37.12c2.2-2.6,5.88-4.42,10.72-4.42,6.06,0,11.08,4.3,11.08,12.71V77.71h-6.86V59.8c0-5.08-3-7.26-6.67-7.26a10.13,10.13,0,0,0-8.64,4.12v21h-6.86Zm50.46-.61c9.37,0,16.47,7,16.47,15.74s-7.1,15.73-16.47,15.73-16.42-7-16.42-15.73S301.39,46.85,310.7,46.85Zm0,25.78c5.45,0,9.61-4.36,9.61-10s-4.16-10.05-9.61-10.05-9.56,4.42-9.56,10.05S305.31,72.63,310.7,72.63Z"
         id="path2"
         style="stroke:#ffffff;stroke-opacity:1;fill:#ffffff" />
      <path
         d="M126,18.14c-6.73,9.06-21.22,11.1-22.85,5.7s6.79-9.14,11.22-9.67C88.73,7.23,93.38,25.71,79.2,27.5c7.84,3.85,16,10.25,21.49,11C110.13,39.89,123.35,34.71,126,18.14Z"
         id="path4"
         style="stroke:none;stroke-opacity:1;fill:#ffffff;fill-opacity:1" />
      <path
         d="M62.41,23.79A38.1,38.1,0,0,1,58,21.15a4.58,4.58,0,0,1-1.76-5.27,8.63,8.63,0,0,1,.6-1.23c.22.2,1.59,3.1,7.45,5.8,2,.94,9.43,4.53,9.69,4.59,2.69.61,7.07-2.27,5.86-4.5-.86-1.27-4.69-5.44-5.14-7.8-.36-1.92-.31-4.92-4.44-8.69C66.34.44,57.85-.59,51.89.3,53.6,1.82,56.51,4.55,53.72,6a28.9,28.9,0,0,0-4.63,2.73c-4.58,3.72-5,11.7.38,16.49,4.14,3.65,9.14,9,3.17,15.23-4.1,4.27-14,2.12-20.2-4.22-6.86-7-7.56-20.29-.89-30.62l.91-1.43a8.55,8.55,0,0,0-1,.2c-1.58.58-3.19,1.09-4.72,1.79A45.32,45.32,0,0,0,4.93,26.6C2.58,31-6.11,51.19,7.34,71.49c.35-6.57,2.35-13,4.7-16.37,2.53-3.59,7.93-6.77,13,0C28.3,59.46,29,66,33.13,66s5-6.63,7.84-10.88c4.59-7,10.83-4.25,13.07-.63a23.55,23.55,0,0,1,2.76,17C53.79,86.21,26.92,86,18,83c0,0,9.39,8.63,27,8.82,6.28.07,27.12-2.48,35.31-24.81C90,40.62,66.48,26.05,62.41,23.79Zm-1.6-16.2C64.92,3.18,71,9.1,70.73,16.25c-5.34-5.6-7.89-6.11-12.13-4.42C58.51,10.56,60.21,8.22,60.81,7.59Z"
         id="path6"
         style="fill:#ffffff" />
    </g>
  </g>
  <path
     style="fill:#ffffff;stroke-width:0.29;stroke-miterlimit:4;stroke-dasharray:none;fill-opacity:1;stroke:none"
     d="m 101.02499,38.426803 c -2.623343,-0.407417 -5.676497,-1.810445 -11.581535,-5.32211 -2.09245,-1.244358 -5.088264,-2.984562 -6.657366,-3.867119 l -2.852911,-1.60465 1.546554,-0.458289 c 2.618673,-0.77599 4.377055,-2.018596 7.09912,-5.016776 6.186963,-6.814541 7.759095,-7.998927 11.919598,-8.979781 2.39119,-0.563731 6.5247,-0.430398 10.35145,0.333902 l 2.56736,0.512769 -2.31041,0.775198 c -5.33331,1.789452 -8.1949,4.483339 -8.1949,7.714654 0,1.773576 0.70503,2.897231 2.31607,3.691294 1.10839,0.546308 1.76454,0.64279 4.21572,0.619883 2.45139,-0.02291 3.32531,-0.170347 5.61751,-0.94773 3.45615,-1.172129 6.22588,-2.792525 8.66008,-5.066475 l 1.92345,-1.796812 -0.21409,1.161207 c -0.33324,1.807462 -1.9969,6.026431 -3.09266,7.842863 -2.85634,4.734904 -7.85943,8.448039 -13.27308,9.850858 -1.84154,0.47719 -6.48347,0.798844 -8.03996,0.557114 z"
     id="path109" />
  <path
     style="fill:#ffffff;stroke-width:0.290302;fill-opacity:1;stroke:none;stroke-opacity:1"
     d="M 96.815616,62.560016 V 47.609478 h 3.338474 3.33847 v 1.548276 c 0,0.851552 0.0841,1.632393 0.18692,1.735203 0.10281,0.10281 0.62016,-0.193458 1.14967,-0.658373 2.63297,-2.311779 5.67037,-3.330347 9.39951,-3.152054 3.07842,0.147181 5.23629,1.08571 7.34529,3.19471 0.76806,0.768054 1.47361,1.396462 1.5679,1.396462 0.0943,0 0.72947,-0.51437 1.4115,-1.143045 2.63718,-2.430867 6.32354,-3.658657 10.30503,-3.432226 4.75182,0.27024 7.94292,2.553916 9.57658,6.853372 0.947,2.492296 1.16835,5.960184 0.96173,15.067426 l -0.19265,8.491324 h -3.1302 -3.13019 l -0.0897,-10.087984 -0.0897,-10.087984 -0.81987,-1.669621 c -0.62521,-1.273211 -1.12757,-1.849946 -2.11587,-2.429127 -1.19879,-0.702541 -1.49656,-0.75058 -3.97011,-0.640494 -2.28102,0.101517 -2.90449,0.244794 -4.24139,0.974691 -0.862,0.470624 -1.88673,1.256032 -2.27716,1.74535 l -0.70989,0.88967 0.0402,10.65275 0.0402,10.652749 h -3.3378 -3.3378 l -0.0861,-10.523436 -0.0861,-10.523437 -0.79423,-1.35105 c -1.11241,-1.892309 -2.58922,-2.568094 -5.61149,-2.567794 -1.92874,1.92e-4 -2.58661,0.134456 -4.04514,0.825571 -0.96141,0.455554 -2.22956,1.366298 -2.83044,2.032719 l -1.08863,1.207378 v 10.450025 10.450024 h -3.33847 -3.338474 z"
     id="path148" />
  <path
     style="fill:#ffffff;stroke-width:0.290302"
     d="m 164.16561,77.891838 c -1.68963,-0.279952 -4.61309,-1.371727 -6.12244,-2.286437 -3.21207,-1.94661 -5.40027,-4.936254 -6.36025,-8.689737 -2.73207,-10.68229 5.0264,-20.476566 15.67601,-19.789366 8.0647,0.5204 12.77327,5.804119 12.77327,14.333503 v 2.696874 h -11.21371 -11.21372 l 0.19003,1.233782 c 0.50656,3.288752 2.73685,5.848383 5.92722,6.802485 3.09606,0.925897 9.33446,0.485332 12.8379,-0.90663 0.35668,-0.141715 0.56585,0.311348 1.03712,2.246484 l 0.59034,2.423999 -1.61773,0.622529 c -2.86064,1.100824 -5.22482,1.505092 -8.58497,1.468009 -1.75632,-0.01939 -3.51991,-0.08935 -3.91907,-0.155495 z m 9.24922,-20.039412 c -0.3293,-1.762646 -1.39259,-3.353301 -2.91572,-4.36186 -1.04107,-0.689351 -1.55978,-0.814698 -3.72692,-0.900606 -3.05849,-0.121242 -4.92914,0.548142 -6.55211,2.344569 -1.00854,1.11634 -2.13119,3.170698 -2.14443,3.92414 -0.005,0.281457 1.74389,0.362877 7.79429,0.362877 h 7.80067 z"
     id="path187" />
  <path
     style="fill:#ffffff;stroke-width:0.290302"
     d="m 192.91503,77.626421 c -2.08779,-0.561083 -4.11712,-1.891391 -5.061,-3.317689 -1.59037,-2.403205 -1.62549,-2.890499 -1.62549,-22.550871 V 33.674997 h 3.33847 3.33847 l 0.004,17.92613 c 0.003,13.649614 0.0898,18.092592 0.36287,18.623899 0.50974,0.991856 1.74069,1.826314 2.99479,2.030164 0.59243,0.0963 1.07486,0.27437 1.07208,0.395722 -0.003,0.121349 -0.0969,1.395047 -0.20922,2.830441 l -0.20417,2.609804 -1.21198,-0.0191 c -0.6666,-0.01051 -1.92619,-0.211044 -2.7991,-0.445631 z"
     id="path226" />
  <path
     style="fill:#ffffff;stroke-width:0.290302"
     d="m 210.11632,77.3797 c -3.04951,-0.953043 -5.38612,-3.078412 -6.53306,-5.942447 -0.60992,-1.523027 -0.65455,-2.126483 -0.74774,-10.111019 l -0.0991,-8.491325 h -2.30275 -2.30275 v -2.612715 -2.612716 h 2.32241 2.32242 V 42.8195 38.029522 h 3.33847 3.33846 v 4.789978 4.789978 h 4.20938 4.20937 v 2.612716 2.612715 h -4.20937 -4.20938 v 7.891641 c 0,7.270079 0.0452,7.985104 0.57444,9.07827 0.80397,1.660775 2.02782,2.313423 4.36069,2.325436 1.03783,0.0053 2.42034,-0.08631 3.07224,-0.203685 l 1.18527,-0.213398 0.5059,2.354213 c 0.27824,1.294819 0.39804,2.461855 0.26623,2.593419 -0.98955,0.987671 -6.96364,1.449413 -9.30112,0.718895 z"
     id="path265" />
  <path
     style="fill:#ffffff;stroke-width:0.290302"
     d="m 232.12658,77.631748 c -4.80275,-1.291531 -8.8325,-5.462928 -10.35327,-10.717207 -0.72441,-2.502841 -0.66845,-6.701636 0.12215,-9.165443 1.20491,-3.754926 4.17849,-7.257282 7.64902,-9.009201 4.72128,-2.383291 10.76025,-2.204804 14.75073,0.435971 0.60043,0.397345 1.17122,0.64291 1.26843,0.5457 0.0972,-0.09721 0.17675,-0.612197 0.17675,-1.144417 v -0.967673 h 3.33847 3.33847 v 14.950538 14.950537 h -3.33847 -3.33847 v -1.596659 c 0,-0.878163 -0.0649,-1.596659 -0.14434,-1.596659 -0.0794,0 -0.94099,0.586465 -1.91468,1.303255 -3.12717,2.302091 -7.58672,3.078332 -11.55479,2.011258 z m 8.95922,-5.51577 c 1.15795,-0.343875 1.93929,-0.851614 3.10614,-2.018466 l 1.55902,-1.559018 -0.0779,-6.908312 -0.0779,-6.908312 -1.51549,-0.812155 c -0.83352,-0.446685 -2.46647,-1.013812 -3.62877,-1.260281 -6.7579,-1.433025 -12.12596,2.395803 -12.62585,9.005529 -0.16689,2.20669 0.35391,4.718417 1.29462,6.243666 1.24257,2.014695 3.44523,3.750804 5.58917,4.405326 1.27637,0.389661 4.77949,0.286396 6.37688,-0.187977 z"
     id="path304" />
  <path
     style="fill:#ffffff;stroke-width:0.290302"
     d="M 260.25547,62.560016 V 47.609478 h 3.33847 3.33847 v 1.886961 c 0,1.217153 0.11729,1.886962 0.33041,1.886962 0.18173,0 0.90961,-0.533881 1.61751,-1.186401 3.30445,-3.04594 9.7188,-4.091505 13.7575,-2.242529 2.98567,1.366885 4.71811,3.438694 5.81058,6.948808 0.49293,1.583773 0.54693,2.78661 0.54693,12.182277 v 10.424997 h -3.17618 -3.17617 l -0.0897,-10.087984 c -0.0797,-8.965219 -0.1478,-10.216782 -0.6116,-11.245229 -1.18926,-2.637103 -2.94727,-3.616838 -6.50704,-3.626357 -3.02117,-0.0081 -5.04316,0.711356 -7.03667,2.503695 l -1.46555,1.317656 v 10.569109 10.56911 h -3.33847 -3.33847 z"
     id="path343" />
  <path
     style="fill:#ffffff;stroke-width:0.290302"
     d="m 306.64557,77.660779 c -7.1927,-1.82781 -12.1345,-7.977623 -12.1345,-15.100763 0,-8.652267 7.19836,-15.502476 16.31518,-15.5261 4.24728,-0.01101 8.55295,1.708225 11.46927,4.579614 3.20085,3.151548 4.5731,6.436237 4.5731,10.946486 0,6.8602 -3.79671,12.112628 -10.55021,14.595315 -2.44168,0.897602 -7.15953,1.144129 -9.67284,0.505448 z m 5.56515,-5.104165 c 3.35291,-0.543986 5.5442,-2.155695 7.19223,-5.289912 0.72029,-1.369863 0.79594,-1.802407 0.79779,-4.561535 0.002,-2.702276 -0.0863,-3.236608 -0.77629,-4.708792 -1.03052,-2.198681 -3.01,-4.090052 -5.10871,-4.881306 -2.44873,-0.923218 -5.98915,-0.727808 -8.15062,0.449867 -3.29767,1.796724 -5.06054,4.930213 -5.06054,8.99508 0,2.858042 0.76068,5.029338 2.42393,6.918882 1.43892,1.634706 2.62569,2.38134 4.65036,2.925692 1.95183,0.524767 1.77541,0.518115 4.03185,0.152024 z"
     id="path382" />
</svg>
