<svg width="1099" height="249" viewBox="0 0 1099 249" fill="none" xmlns="http://www.w3.org/2000/svg">
<path d="M345.224 191.972H328.861V147.711C328.861 135.096 322.458 129.654 314.395 129.654C306.806 129.654 299.692 132.564 295.423 139.548C295.62 141.189 295.699 142.842 295.66 144.495V191.681H279.311V145.979C279.311 134.601 272.908 129.974 264.844 129.974C260.908 129.819 257.004 130.77 253.541 132.728C250.078 134.687 247.184 137.58 245.161 141.105V192.292H228.798V117.301H245.161V125.202L246.11 125.697C249.009 122.451 252.54 119.889 256.467 118.185C260.394 116.481 264.625 115.674 268.876 115.817C273.287 115.616 277.674 116.6 281.616 118.674C285.558 120.747 288.924 123.842 291.391 127.661C294.785 123.737 298.965 120.64 303.635 118.591C308.305 116.541 313.35 115.589 318.412 115.803C333.116 115.803 344.917 126.671 344.917 147.944L345.224 191.972ZM427.725 149.486V158.39H374.38C375.566 172.242 383.154 178.921 399.043 179.415C406.373 179.446 413.633 177.931 420.387 174.963L423.47 187.825C415.88 191.752 407.516 193.78 399.043 193.747C374.617 193.747 358.03 179.197 358.03 154.928C358.03 134.398 371.771 116.108 394.063 115.861C413.747 115.57 426.539 127.428 427.725 149.486ZM375.091 146.227H411.361C410.65 135.096 403.535 129.654 394.287 129.654C383.866 129.654 377.226 136.58 375.091 146.227ZM467.161 193.456C450.324 193.456 441.312 185.308 441.312 169.478V82.9196H457.675V168.241C457.675 175.167 461.944 178.426 468.835 178.63L467.161 193.456ZM469.533 117.301H480.693V93.3083H497.042V117.301H516.726V130.644H496.958V165.564C496.958 174.468 501.702 178.178 508.342 178.178C511.819 178.35 515.293 177.76 518.539 176.447L521.329 189.542C516.635 191.715 511.518 192.711 506.389 192.452C491.699 192.452 480.553 182.82 480.553 165.753V130.644H469.393L469.533 117.301ZM581.551 122.743L582.263 122.496V117.301H598.626V191.972H582.319V184.319L581.37 184.071C578.494 187.249 574.988 189.734 571.098 191.355C567.207 192.976 563.024 193.693 558.841 193.456C539.408 193.456 523.757 176.156 523.757 154.637C523.651 149.612 524.502 144.616 526.261 139.938C528.02 135.259 530.651 130.991 534.002 127.38C537.354 123.77 541.359 120.889 545.785 118.904C550.211 116.919 554.971 115.87 559.789 115.817H560.264C570.224 115.57 576.864 118.538 581.607 122.743H581.551ZM582.263 167.993V135.838C576.424 131.615 569.444 129.449 562.342 129.654C550.262 129.654 540.022 140.538 540.022 154.389C540.022 168.241 549.983 179.124 562.342 179.124C570.698 179.372 578.287 176.403 582.319 167.993H582.263ZM616.887 117.068H633.236V126.206L634.185 126.453C639.402 120.037 648.135 115.584 659.56 115.584C674.026 115.584 685.883 126.206 685.883 146.983V191.972H669.576V147.711C669.576 135.096 662.461 129.654 653.687 129.654C649.743 129.447 645.812 130.27 642.251 132.048C638.689 133.827 635.61 136.505 633.292 139.839V191.681H616.942L616.887 117.068ZM736.62 115.613C758.94 115.613 775.68 132.913 775.68 154.433C775.68 175.952 758.842 193.252 736.62 193.252C714.397 193.252 697.727 175.952 697.727 154.433C697.727 132.913 714.565 115.613 736.62 115.613ZM736.62 179.415C749.663 179.415 759.372 168.532 759.372 154.68C759.372 140.829 749.426 129.945 736.62 129.945C723.813 129.945 713.853 140.829 713.853 154.68C713.853 168.532 723.813 179.415 736.62 179.415Z" fill="white"/>
<path d="M298.743 44.5949C282.868 67.0892 248.523 72.0362 244.687 58.6793C240.85 45.3224 260.813 36.185 271.192 34.7009C210.495 17.6337 221.404 63.1316 187.729 67.5839C206.227 77.2305 225.673 92.8136 238.702 94.7924C261.05 98.5608 292.354 85.6404 298.743 44.5949Z" fill="white"/>
<path d="M147.957 58.6793C144.4 56.7005 140.843 54.4743 137.523 52.2627C135.574 50.8322 134.111 48.7936 133.344 46.4404C132.577 44.0872 132.545 41.5407 133.254 39.1678L134.649 36.2578C135.123 36.7525 138.443 43.9256 152.435 50.604C157.178 52.8302 174.755 61.7202 175.425 61.9676C181.828 63.4226 192.263 56.2785 189.375 50.8514C187.241 47.6358 178.215 37.4945 177.28 31.5581C176.332 26.8585 176.569 19.438 166.846 10.0386C157.611 1.13405 137.453 -1.33945 123.224 0.639351C127.256 4.3496 134.133 11.028 127.493 14.7383C123.698 16.6693 120.051 18.902 116.584 21.4167C105.675 30.5687 104.726 50.3567 117.532 62.1568C127.297 71.0614 139.113 84.4183 125.121 99.754C115.356 110.39 91.9342 104.948 77.2309 89.3652C60.8676 72.0508 59.2075 39.1678 75.0965 13.7052L77.2309 10.2423C76.4216 10.2866 75.6228 10.4533 74.8594 10.737C71.065 12.192 67.2706 13.4579 63.6994 15.1894C41.3313 25.3003 22.9545 43.0913 11.6241 65.6051C6.1696 76.4885 -14.4625 126.439 17.3157 176.651C18.0271 160.326 23.0072 144.495 28.4757 136.085C34.3904 127.181 47.1966 119.28 59.2912 136.085C67.1172 146.721 68.7772 163.046 78.5004 163.046C88.2235 163.046 90.3578 146.721 96.9841 136.085C107.893 118.785 122.596 125.697 128.051 134.63C135.17 147.309 137.536 162.289 134.691 176.68C127.576 213.055 63.7971 212.531 42.6907 205.11C42.6907 205.11 65.0107 226.383 106.707 226.935C121.648 227.183 170.961 220.752 190.407 165.607C213.397 100.234 157.681 64.121 147.957 58.6793ZM144.163 18.6232C153.928 7.73975 168.338 22.3334 167.627 40.1426C155.072 26.291 148.906 25.0542 138.946 29.2592C138.709 26.0436 142.74 20.1073 144.163 18.6232Z" fill="white"/>
<path d="M797.914 211.664V96.72H814.042V211.664H797.914ZM870.534 195.536C862.683 195.536 856.027 194.213 850.566 191.568C845.105 188.837 840.454 185.339 836.614 181.072L849.414 168.144C855.473 174.971 862.939 178.384 871.814 178.384C876.593 178.384 880.134 177.403 882.438 175.44C884.742 173.477 885.894 170.875 885.894 167.632C885.894 165.157 885.211 163.109 883.846 161.488C882.481 159.781 879.707 158.629 875.526 158.032L866.694 156.88C857.222 155.685 850.267 152.827 845.83 148.304C841.478 143.781 839.302 137.765 839.302 130.256C839.302 126.245 840.07 122.576 841.606 119.248C843.142 115.92 845.318 113.061 848.134 110.672C851.035 108.283 854.534 106.448 858.63 105.168C862.811 103.803 867.547 103.12 872.838 103.12C879.579 103.12 885.51 104.187 890.63 106.32C895.75 108.453 900.145 111.568 903.814 115.664L890.886 128.72C888.753 126.245 886.15 124.24 883.078 122.704C880.091 121.083 876.294 120.272 871.686 120.272C867.334 120.272 864.091 121.04 861.958 122.576C859.825 124.112 858.758 126.245 858.758 128.976C858.758 132.048 859.569 134.267 861.19 135.632C862.897 136.997 865.627 137.979 869.382 138.576L878.214 139.984C887.43 141.435 894.257 144.293 898.694 148.56C903.131 152.741 905.35 158.715 905.35 166.48C905.35 170.747 904.582 174.672 903.046 178.256C901.51 181.84 899.249 184.912 896.262 187.472C893.361 190.032 889.734 192.037 885.382 193.488C881.03 194.853 876.081 195.536 870.534 195.536ZM921.481 104.656H955.145C961.033 104.656 966.409 105.595 971.273 107.472C976.137 109.349 980.276 112.165 983.689 115.92C987.102 119.589 989.748 124.24 991.625 129.872C993.502 135.419 994.441 141.904 994.441 149.328C994.441 156.752 993.502 163.28 991.625 168.912C989.748 174.459 987.102 179.109 983.689 182.864C980.276 186.533 976.137 189.307 971.273 191.184C966.409 193.061 961.033 194 955.145 194H921.481V104.656ZM955.145 176.72C960.948 176.72 965.513 175.099 968.841 171.856C972.169 168.613 973.833 163.408 973.833 156.24V142.416C973.833 135.248 972.169 130.043 968.841 126.8C965.513 123.557 960.948 121.936 955.145 121.936H940.937V176.72H955.145ZM1041.84 155.088L1030.19 169.168V194H1010.73V104.656H1030.19V147.152H1030.96L1043.63 129.872L1063.72 104.656H1085.74L1055.66 141.392L1088.43 194H1065.51L1041.84 155.088Z" fill="white"/>
</svg>
