<svg width="218" height="37" viewBox="0 0 218 37" fill="none" xmlns="http://www.w3.org/2000/svg">
<path d="M91.526 28.1817C91.0512 27.6427 90.7072 27.0262 90.4979 26.3285C90.2848 25.6308 90.1839 24.6932 90.1839 23.5119V5.81453H94.113V23.0947C94.113 24.4348 94.2588 25.4684 94.5579 26.1993C94.857 26.9118 95.242 27.5209 95.7168 28.0267V28.1854H91.5222H91.526V28.1817Z" fill="#080216"/>
<path d="M100.382 28.1817C99.9749 27.7129 99.6534 27.1481 99.4067 26.4873C99.1786 25.8265 99.0628 24.8335 99.0628 23.5119V15.6156H96.8982V12.5332H99.1151V8.20297H102.943V12.5332H105.553V15.6156H102.966V23.0689C102.966 24.4569 103.126 25.5201 103.441 26.251C103.758 26.9635 104.136 27.5541 104.577 28.0267V28.1854H100.382V28.1817Z" fill="#080216"/>
<path d="M46.1744 12.5184H49.9092V14.4233H50.1185C50.8101 13.2309 52.2569 12.1308 54.4252 12.1308C56.5936 12.1308 58.2198 13.0537 59.1245 14.5118H59.3675C60.4517 12.8765 62.0181 12.1308 64.0668 12.1308C67.5623 12.1308 69.8502 14.486 69.8502 17.7863V28.178H65.936V19.1263C65.936 16.9815 64.9416 15.7596 63.0761 15.7596C61.2106 15.7596 60.0031 17.0996 60.0031 19.2149V28.178H56.0851V18.8864C56.0851 16.9815 54.9412 15.7596 53.1355 15.7596C51.3298 15.7596 50.0961 17.1882 50.0961 19.1817V28.178H46.1819V12.5184H46.1744Z" fill="#080216"/>
<path d="M72.1083 20.4368C72.1083 15.4938 75.4505 12.1271 80.0899 12.1271C85.178 12.1271 87.9482 15.8519 87.9482 20.2596V21.4778H75.8991C76.0187 23.8589 77.6786 25.4684 80.2058 25.4684C82.1312 25.4684 83.6116 24.5714 84.1537 23.2941H87.7987C87.0174 26.4836 84.1836 28.5656 80.0862 28.5656C75.4168 28.5656 72.1045 25.1103 72.1045 20.4331H72.1083V20.4368ZM84.2172 18.7424C84.0378 16.6271 82.3816 15.228 80.0899 15.228C77.7983 15.228 76.2057 16.7748 75.9627 18.7424H84.2172Z" fill="#080216"/>
<path d="M107.377 20.4368C107.377 15.5233 110.39 12.1271 114.727 12.1271C117.467 12.1271 119.004 13.7366 119.546 14.5377H119.755V12.511H123.673V28.1743H119.815V26.1809H119.606C119.153 26.838 117.736 28.5619 114.847 28.5619C110.42 28.5619 107.377 25.2875 107.377 20.4294V20.4368ZM119.849 20.3814C119.849 17.4319 118.043 15.6452 115.572 15.6452C113.101 15.6452 111.355 17.6091 111.355 20.3814C111.355 23.1538 113.071 25.0845 115.602 25.0845C118.133 25.0845 119.845 23.0024 119.845 20.3814H119.849Z" fill="#080216"/>
<path d="M126.929 12.5184H130.664V14.4233H130.874C131.505 13.2604 133.075 12.1308 135.334 12.1308C138.885 12.1308 141.053 14.6041 141.053 17.9376V28.1817H137.139V18.9491C137.139 17.0443 135.906 15.7596 134.096 15.7596C132.201 15.7596 130.844 17.251 130.844 19.2149V28.178H126.929V12.5184Z" fill="#080216"/>
<path d="M143.311 20.3482C143.311 15.7005 146.747 12.1271 151.745 12.1271C156.744 12.1271 160.18 15.7005 160.18 20.3482C160.18 24.9959 156.684 28.5693 151.745 28.5693C146.807 28.5693 143.311 25.0254 143.311 20.3482ZM156.205 20.3482C156.205 17.6386 154.336 15.6452 151.745 15.6452C149.155 15.6452 147.285 17.6386 147.285 20.3482C147.285 23.0578 149.155 25.0513 151.745 25.0513C154.336 25.0513 156.205 23.0873 156.205 20.3482Z" fill="#080216"/>
<path d="M39.1087 7.39083C37.6058 9.41011 34.3757 9.86417 34.0169 8.66072C33.6505 7.45727 35.5309 6.62298 36.5179 6.50854C30.8018 4.96178 31.8373 9.07787 28.6783 9.47287C30.4242 10.3293 32.2411 11.7579 33.4673 11.9314C35.5721 12.2342 38.5217 11.0787 39.1087 7.38713" fill="#080216"/>
<path fill-rule="evenodd" clip-rule="evenodd" d="M16.5619 2.22264C16.4535 1.584 16.0048 1.38096 15.2945 1.09671H15.2908C19.9302 -1.07393 22.8911 0.491295 24.0874 1.46956C24.7492 2.01222 24.9996 2.52904 25.2389 3.01632C25.4296 3.40763 25.609 3.78048 25.9866 4.13487C26.5511 4.66645 27.6054 5.42322 28.0278 5.72593C28.0689 5.75546 28.1063 5.7813 28.1362 5.80345C28.4503 6.03233 28.5848 6.6599 28.297 7.09181C28.0091 7.52003 27.2539 8.40231 26.3417 8.25465C25.4333 8.10699 23.4407 7.76367 21.7957 7.48311C20.1546 7.19886 19.0143 6.28705 19.0143 6.28705C18.8087 7.43512 19.5041 8.4503 20.8125 8.78993C21.0667 8.85638 21.3696 8.92282 21.7135 9.00035C23.2538 9.34735 25.5567 9.86786 27.4633 11.0787C30.0503 12.7214 32.099 15.3203 32.899 19.3109C33.6991 23.3015 32.7009 31.7551 25.5978 35.2252C18.4947 38.6953 11.7654 36.0078 11.7654 36.0078C18.132 35.7125 21.8593 33.1432 23.2837 31.434C24.2818 30.2342 25.2239 28.0783 24.652 25.5939C24.0239 22.8695 21.7098 20.8023 19.3545 21.1493C16.9993 21.4963 16.0011 24.0287 15.56 25.258C15.1188 26.4873 14.4309 27.3954 13.829 27.4951C13.2271 27.5947 12.3635 27.628 11.6046 25.808C10.8457 23.9881 8.8232 20.7284 6.13897 21.954C3.45474 23.1759 2.96874 28.8425 2.96874 28.8425C-0.328607 23.6152 -1.16603 16.9151 1.9257 10.4068C5.01743 3.89861 11.4663 1.50278 11.4663 1.50278C10.3111 2.99048 9.0363 7.4905 10.3336 11.5401C11.6308 15.5898 14.8309 17.6201 16.6665 17.8933C18.5021 18.1702 20.6892 17.0886 20.5695 14.8662C20.4723 13.0426 18.8947 11.7469 17.2236 10.9864C16.031 10.4437 14.8496 9.196 14.7674 7.28008C14.6851 5.36047 15.53 4.14963 15.9413 3.66604C16.2665 3.28581 16.6479 2.76161 16.5544 2.21895L16.5619 2.22264ZM21.2163 4.06473C19.863 4.06473 19.2461 4.74767 19.2461 4.74767C19.2498 4.71444 19.2536 4.67384 19.2611 4.62954C19.3171 4.14594 19.4368 3.13815 19.934 2.64717C20.4761 2.11189 21.392 1.70951 22.6818 2.64717C23.9715 3.58482 24.3753 5.29402 24.3753 5.29402C23.9229 4.91379 22.5734 4.06473 21.22 4.06473H21.2163Z" fill="#080216"/>
<path d="M168.224 0H166.153V36.8307H168.224V0Z" fill="#18C3FA"/>
<path d="M177.444 23.1122C177.512 24.3709 178.514 25.3112 180.334 25.3112C181.837 25.3112 182.723 24.7387 182.723 23.7302C182.723 20.7503 174.411 23.408 174.411 16.8111C174.411 14.1307 176.483 12 180.149 12C183.473 12 185.933 13.7175 186.069 17.1069H182.47C182.448 16.0074 181.626 15.2264 180.149 15.2264C178.672 15.2264 178.009 15.8671 178.009 16.7164C178.009 19.556 186.479 16.9704 186.479 23.4535C186.479 26.4296 184.226 28.6323 180.217 28.6323C176.208 28.6323 173.978 26.4107 174 23.1122H177.444Z" fill="#18C3FA"/>
<path d="M188.216 12.2995H193.887C198.989 12.2995 202.082 15.5752 202.082 20.2498C202.082 25.2202 198.985 28.3366 193.887 28.3366H188.216V12.2995ZM193.725 25.1974C196.046 25.1974 198.326 23.8932 198.326 20.2498C198.326 16.6064 196.072 15.4387 193.725 15.4387H191.811V25.1974H193.725Z" fill="#18C3FA"/>
<path d="M212.873 28.3366L209.162 21.5313L207.568 23.4345V28.3366H203.97V12.2995H207.568V18.4148H207.704L212.508 12.2995H216.946L211.641 18.6006L217.037 28.3366H212.87H212.873Z" fill="#18C3FA"/>
</svg>
